<?xml version="1.0" standalone="no"?>
<!DOCTYPE svg PUBLIC "-//W3C//DTD SVG 20010904//EN"
 "http://www.w3.org/TR/2001/REC-SVG-20010904/DTD/svg10.dtd">
<svg version="1.0" xmlns="http://www.w3.org/2000/svg"
 width="215.000000pt" height="215.000000pt" viewBox="0 0 215.000000 215.000000"
 preserveAspectRatio="xMidYMid meet">
<metadata>
Created by potrace 1.10, written by Peter Selinger 2001-2011
</metadata>
<g transform="translate(0.000000,215.000000) scale(0.050000,-0.050000)"
fill="#ffffff" stroke="none">
<path d="M854 3416 c-337 -90 -433 -513 -173 -767 95 -93 97 -108 17 -167
-230 -170 -237 -463 -17 -683 93 -93 94 -98 28 -160 -27 -26 -46 -58 -41 -72
6 -15 -1 -21 -17 -14 -45 17 -131 -152 -131 -257 0 -171 128 -365 290 -439
114 -51 2563 -57 2686 -6 160 67 303 274 304 441 0 89 -80 261 -118 253 -12
-3 -22 7 -22 22 0 14 -22 47 -50 73 -62 58 -63 87 -3 126 230 151 241 519 22
712 -84 74 -84 80 -10 151 33 32 54 66 47 77 -7 11 -2 14 10 6 32 -19 104 132
118 248 21 182 -148 409 -343 458 -115 29 -2487 27 -2597 -2z m2632 -238 c159
-72 148 -321 -18 -390 -101 -42 -2544 -41 -2626 1 -152 79 -161 317 -14 388
60 29 2594 30 2658 1z m-6 -848 c140 -72 164 -230 52 -342 l-68 -68 -1304 0
-1304 0 -68 68 c-109 109 -92 254 38 333 87 53 2553 61 2654 9z m52 -898 c112
-112 88 -270 -52 -342 -87 -45 -2553 -45 -2640 0 -140 72 -164 230 -52 342
l68 68 1304 0 1304 0 68 -68z"/>
</g>
</svg>
